:SAMPLES-PER-SECOND 30
:FRAME-RANGE 1-1390
:FULLY-SPECIFIED
:DEGREES
826
root  10.6059 38.1182 15.7031 161.303 -66.5193 -175.739
RightUpLeg  -91.4766 -19.1335 57.745
RightLeg  128.377 -2.31436 3.3234
RightFoot  -29.4028 0.526689 4.57028
RightToes  6.35937e-011 1.2921e-014 -6.02303e-014
Spine  16.4538 -3.95603 -1.34824
Spine1  -6.0164 -1.97498 -0.246082
HEad  10.5607 -25.7393 15.948
LeftShoulder1  3.41369 -10.7906 -17.8549
LeftArm  45.8778 -20.2709 -69.172
LeftForeArm  21.9728 -3.5162 -18.3284
LeftHand  -0.017962 5.98269 2.33738
RightShoulder  2.64602 5.75791 23.0884
RightArm  0.284719 31.1702 90.9037
RightForeArm  120.871 -3.88925 8.91993
RightHand  1.66545 -18.1962 -15.2964
LeftUpLeg  -5.87787 4.56905 -3.28833
LeftLeg  39.2248 0.0433049 0.44185
LeftFoot  -10.0686 0.0241929 3.27357
LeftToes  4.52251e-011 4.07896e-011 -5.42348e-012
827
root  11.206 39.4519 16.0331 164.038 -64.5433 -176.789
RightUpLeg  -91.9356 -17.3736 57.146
RightLeg  127.48 0.0695998 0.528562
RightFoot  -29.4202 0.459542 4.14478
RightToes  6.35937e-011 1.2921e-014 -6.02303e-014
Spine  16.2628 -4.26969 -1.4109
Spine1  -5.486 -2.4399 1.02421
HEad  12.0568 -24.1431 13.5687
LeftShoulder1  3.56986 -11.4377 -17.8476
LeftArm  44.3423 -21.4373 -69.306
LeftForeArm  22.5471 -3.14037 -18.3565
LeftHand  -0.0268657 6.1286 2.05255
RightShoulder  2.58068 5.76524 22.297
RightArm  1.15099 31.3526 92.3223
RightForeArm  121.222 -3.8959 9.06199
RightHand  1.57522 -18.4817 -14.2194
LeftUpLeg  -4.79295 0.436864 -4.40099
LeftLeg  30.1173 4.51499 3.19426
LeftFoot  -1.19358 0.0285841 -0.240857
LeftToes  4.52251e-011 4.07896e-011 -5.42348e-012
828
root  11.852 40.5596 16.3976 166.696 -62.1184 -177.745
RightUpLeg  -91.9768 -15.3763 56.6652
RightLeg  126.591 1.43675 -1.17956
RightFoot  -30.0803 0.498355 4.25911
RightToes  6.35937e-011 1.2921e-014 -6.02303e-014
Spine  16.0265 -4.21101 -0.895574
Spine1  -4.90673 -2.35155 1.66527
HEad  15.4021 -22.7527 10.3611
LeftShoulder1  3.73259 -12.1451 -17.7833
LeftArm  40.795 -22.9498 -69.5003
LeftForeArm  25.7981 -2.17608 -18.318
LeftHand  -0.0295291 5.99907 1.67458
RightShoulder  2.51105 5.63431 21.9086
RightArm  1.9924 31.8994 93.2094
RightForeArm  119.555 -3.99792 9.23004
RightHand  1.40933 -18.0776 -13.2143
LeftUpLeg  -5.13552 -5.96312 -5.44036
LeftLeg  23.8595 12.269 6.23867
LeftFoot  8.88414 0.355544 -2.2977
LeftToes  4.52251e-011 4.07896e-011 -5.42348e-012
829
root  12.5333 41.2198 16.7318 168.426 -59.3191 -178.448
RightUpLeg  -91.3452 -13.7382 56.2544
RightLeg  125.596 1.45049 -1.25296
RightFoot  -30.6092 0.570241 4.58491
RightToes  6.35937e-011 1.2921e-014 -6.02303e-014
Spine  16.6146 -4.19753 0.11471
Spine1  -4.75452 -2.18237 1.37798
HEad  20.6241 -20.6659 6.92435
LeftShoulder1  3.76274 -12.2382 -17.8361
LeftArm  37.8877 -23.4005 -68.8933
LeftForeArm  28.0217 -1.29946 -18.2686
LeftHand  -0.0225237 5.8229 1.89399
RightShoulder  2.48464 5.58267 21.7647
RightArm  3.01971 32.4381 94.2409
RightForeArm  118.076 -4.11514 9.54563
RightHand  1.27729 -18.3301 -11.8424
LeftUpLeg  -6.69238 -4.93715 -5.1092
LeftLeg  22.0343 5.61684 2.96471
LeftFoot  12.8207 0.303871 -1.78755
LeftToes  4.52251e-011 4.07896e-011 -5.42348e-012
830
root  13.2103 41.4001 17.0835 170 -57.1354 -179.89
RightUpLeg  -91.0442 -13.1409 55.4447
RightLeg  124.869 0.949146 -0.626827
RightFoot  -30.6606 0.576419 4.61084
RightToes  6.35937e-011 1.2921e-014 -6.02303e-014
Spine  17.79 -4.30224 0.573
Spine1  -4.61971 -2.22515 0.921541
HEad  26.0764 -18.3449 3.91471
LeftShoulder1  3.70372 -11.7625 -18.2425
LeftArm  38.5925 -23.538 -68.0011
LeftForeArm  26.4028 -1.3203 -18.3369
LeftHand  -0.0146443 6.21237 2.32106
RightShoulder  2.47162 5.63246 21.443
RightArm  4.19287 32.8964 94.9379
RightForeArm  117.858 -4.18939 9.9546
RightHand  1.22225 -18.1979 -11.4839
LeftUpLeg  -8.43095 -8.57519 -6.19531
LeftLeg  25.5541 -2.99005 -1.20591
LeftFoot  10.8157 1.09428 -5.92413
LeftToes  4.52251e-011 4.07896e-011 -5.42348e-012
831
root  13.7968 41.1656 17.4794 171.224 -54.0728 178.66
RightUpLeg  -90.0501 -12.7865 55.0436
RightLeg  124.394 0.658802 -0.249393
RightFoot  -31.2687 0.53622 4.26285
RightToes  6.35937e-011 1.2921e-014 -6.02303e-014
Spine  18.6351 -4.04264 2.28463
Spine1  -3.8917 -1.51157 -0.980149
HEad  30.5027 -16.5436 1.48949
LeftShoulder1  3.5896 -11.1817 -18.4595
LeftArm  35.6679 -24.1472 -67.8405
LeftForeArm  29.1881 -0.295963 -18.2152
LeftHand  -0.0104638 6.41626 2.43441
RightShoulder  2.43073 5.5969 21.0686
RightArm  5.28825 33.1144 94.9575
RightForeArm  116.995 -4.32286 10.5557
RightHand  1.2862 -18.2105 -12.0242
LeftUpLeg  -9.87113 -11.463 -7.53878
LeftLeg  30.7813 -4.95942 -2.82474
LeftFoot  7.44535 1.62951 -10.1056
LeftToes  4.52251e-011 4.07896e-011 -5.42348e-012
832
root  14.3442 40.5618 17.8425 172.077 -49.9534 178.318
RightUpLeg  -88.2253 -11.6322 56.2507
RightLeg  123.819 1.24098 -1.06867
RightFoot  -32.2921 0.634363 4.6193
RightToes  6.35937e-011 1.2921e-014 -6.02303e-014
Spine  18.9538 -3.41226 4.45523
Spine1  -3.06101 -0.311751 -2.73166
HEad  33.0836 -14.4748 -0.150748
LeftShoulder1  3.36045 -10.3576 -18.2659
LeftArm  33.5242 -24.8606 -68.4302
LeftForeArm  32.1024 0.466268 -18.0456
LeftHand  -0.00593238 6.67958 2.4622
RightShoulder  2.46669 5.84236 20.7077
RightArm  5.68095 33.012 94.7586
RightForeArm  113.735 -4.54127 10.9922
RightHand  1.39337 -18.0278 -13.125
LeftUpLeg  -12.033 -11.2333 -7.70504
LeftLeg  37.0641 -5.8855 -4.37712
LeftFoot  1.68135 1.22073 -10.7618
LeftToes  4.52251e-011 4.07896e-011 -5.42348e-012
833
root  14.8914 39.5378 18.1168 173.296 -46.3338 178.008
RightUpLeg  -87.0721 -11.091 56.9483
RightLeg  123.827 0.732535 -0.363774
RightFoot  -32.0717 0.684494 4.93491
RightToes  6.35937e-011 1.2921e-014 -6.02303e-014
Spine  19.4987 -2.8742 5.0944
Spine1  -3.14422 0.454772 -3.47693
HEad  33.4052 -12.2054 -0.269299
LeftShoulder1  3.09171 -9.72081 -17.3352
LeftArm  34.1428 -24.6265 -69.2042
LeftForeArm  31.9603 0.448687 -18.0531
LeftHand  -0.00444138 6.91578 2.30152
RightShoulder  2.55036 6.06794 20.9724
RightArm  5.67476 32.3757 94.2444
RightForeArm  113.577 -4.59971 11.3228
RightHand  1.38101 -18.1797 -12.8696
LeftUpLeg  -14.5247 -12.5522 -7.73203
LeftLeg  42.9713 -4.90933 -4.47622
LeftFoot  0.604512 1.01308 -9.70224
LeftToes  4.52251e-011 4.07896e-011 -5.42348e-012
834
root  15.3973 38.2539 18.2859 173.996 -42.7827 178.302
RightUpLeg  -84.9636 -10.9767 57.5583
RightLeg  123.661 0.652073 -0.256092
RightFoot  -33.1215 0.761847 5.13151
RightToes  6.35937e-011 1.2921e-014 -6.02303e-014
Spine  19.2943 -2.34256 5.39684
Spine1  -2.39606 1.10265 -4.045
HEad  31.3107 -10.478 -0.044676
LeftShoulder1  2.95567 -9.57876 -16.4715
LeftArm  39.5397 -23.9954 -69.5254
LeftForeArm  27.0846 -0.930007 -18.3142
LeftHand  -0.00732929 6.4799 2.63396
RightShoulder  2.65714 6.3858 21.2009
RightArm  5.39103 31.9166 93.9398
RightForeArm  113.537 -4.62275 11.4598
RightHand  1.52889 -18.4653 -13.8469
LeftUpLeg  -14.9283 -14.4998 -6.94399
LeftLeg  46.1104 -5.47552 -5.64088
LeftFoot  -4.97685 0.182421 -2.74337
LeftToes  4.52251e-011 4.07896e-011 -5.42348e-012
835
root  15.8901 36.8728 18.2663 173.308 -39.2617 179.244
RightUpLeg  -82.4683 -11.903 55.7671
RightLeg  123.815 -0.86778 1.85304
RightFoot  -33.0816 0.714853 4.89525
RightToes  6.35937e-011 1.2921e-014 -6.02303e-014
Spine  18.7334 -2.26761 5.51369
Spine1  -0.890412 1.4161 -5.30181
HEad  28.2093 -8.9869 0.382595
LeftShoulder1  2.86095 -9.64234 -15.5493
LeftArm  43.6299 -23.3903 -69.6482
LeftForeArm  23.2183 -2.11622 -18.4324
LeftHand  -0.0266604 6.80725 0.775392
RightShoulder  2.81182 6.67069 22.0249
RightArm  4.537 31.7977 94.1427
RightForeArm  116.946 -4.37585 10.8817
RightHand  1.79509 -18.9257 -15.5554
LeftUpLeg  -13.9262 -13.2463 -5.87426
LeftLeg  46.9228 -2.97758 -2.95917
LeftFoot  -19.0132 0.317494 3.03135
LeftToes  4.52251e-011 4.07896e-011 -5.42348e-012
836
root  16.4676 35.7455 18.264 173.988 -37.7038 176.735
RightUpLeg  -82.1029 -13.96 51.0068
RightLeg  125.349 0.675071 -0.251456
RightFoot  -33.6066 0.304905 2.71345
RightToes  6.35937e-011 1.2921e-014 -6.02303e-014
Spine  19.2771 -2.64626 2.18896
Spine1  -0.0934839 0.723637 -6.44252
HEad  25.1599 -8.92714 -0.436852
LeftShoulder1  2.90654 -9.84218 -15.5606
LeftArm  47.7369 -24.2516 -69.7159
LeftForeArm  20.0836 -3.50995 -18.4103
LeftHand  0.00350968 6.89313 2.88213
RightShoulder  2.82362 6.62536 22.2884
RightArm  3.09607 31.0863 94.8872
RightForeArm  122.082 -3.96074 9.71738
RightHand  2.32005 -20.2377 -18.094
LeftUpLeg  -14.8665 -12.9884 -7.87063
LeftLeg  50.5614 -0.467016 -0.118655
LeftFoot  -24.9298 0.546202 3.32486
LeftToes  4.52251e-011 4.07896e-011 -5.42348e-012
837
root  17.2917 35.1488 18.2015 171.78 -34.17 178.776
RightUpLeg  -81.6985 -15.5682 53.3318
RightLeg  124.921 7.3704 -9.07204
RightFoot  -32.5735 -0.418884 -1.0519
RightToes  6.35937e-011 1.2921e-014 -6.02303e-014
Spine  19.6625 -2.14895 3.7161
Spine1  1.10204 1.46465 -7.88425
HEad  23.3598 -10.1589 -3.33887
LeftShoulder1  2.98562 -10.3367 -15.3161
LeftArm  38.7094 -26.0256 -71.4229
LeftForeArm  30.8594 -1.21794 -18.1517
LeftHand  -0.00751747 7.69681 1.61722
RightShoulder  2.83603 6.63584 22.3896
RightArm  3.22606 31.5557 94.3169
RightForeArm  123.198 -3.91111 9.71848
RightHand  2.51648 -20.6552 -19.0133
LeftUpLeg  -17.0823 -8.17684 -3.60407
LeftLeg  55.6862 -1.78968 -2.28309
LeftFoot  -26.6568 0.499744 2.52334
LeftToes  4.52251e-011 4.07896e-011 -5.42348e-012
838
root  17.9848 35.273 17.9169 170.788 -28.5461 179.73
RightUpLeg  -81.7197 -14.872 57.6182
RightLeg  121.445 14.0538 -19.5959
RightFoot  -32.5007 -0.491799 -1.44869
RightToes  6.35937e-011 1.2921e-014 -6.02303e-014
Spine  18.9382 -1.29045 3.18836
Spine1  0.85705 2.32647 -7.98529
HEad  22.4953 -9.33107 -5.222
LeftShoulder1  2.76402 -9.83277 -14.3888
LeftArm  37.885 -25.7801 -70.777
LeftForeArm  32.3399 -0.793364 -18.0926
LeftHand  -0.0130861 7.41439 1.45272
RightShoulder  2.85057 6.60883 22.6282
RightArm  2.77099 31.508 94.5271
RightForeArm  119.233 -4.06692 9.57459
RightHand  2.34719 -20.2017 -18.3356
LeftUpLeg  -16.1168 -1.72276 0.379925
LeftLeg  55.4059 -3.02834 -4.1863
LeftFoot  -26.8623 0.409496 1.81868
LeftToes  4.52251e-011 4.07896e-011 -5.42348e-012
